solid OpenSCAD_Model
  facet normal -1 0 0
    outer loop
      vertex 0 0 0
      vertex 0 25 0.5
      vertex 0 25 0
    endloop
  endfacet
  facet normal -1 -0 0
    outer loop
      vertex 0 25 0.5
      vertex 0 0 0
      vertex 0 0 0.5
    endloop
  endfacet
  facet normal -0 0 1
    outer loop
      vertex 0 25 0.5
      vertex 1.2 0 0.5
      vertex 1.2 25 0.5
    endloop
  endfacet
  facet normal 0 0 1
    outer loop
      vertex 1.2 0 0.5
      vertex 0 25 0.5
      vertex 0 0 0.5
    endloop
  endfacet
  facet normal 1 -0 0
    outer loop
      vertex 1.2 0 0.5
      vertex 1.2 25 0
      vertex 1.2 25 0.5
    endloop
  endfacet
  facet normal 1 0 0
    outer loop
      vertex 1.2 25 0
      vertex 1.2 0 0.5
      vertex 1.2 0 0
    endloop
  endfacet
  facet normal 0 1 -0
    outer loop
      vertex 1.2 25 0
      vertex 0 25 0.5
      vertex 1.2 25 0.5
    endloop
  endfacet
  facet normal 0 1 0
    outer loop
      vertex 0 25 0.5
      vertex 1.2 25 0
      vertex 0 25 0
    endloop
  endfacet
  facet normal 0 0 -1
    outer loop
      vertex 0 0 0
      vertex 1.2 25 0
      vertex 1.2 0 0
    endloop
  endfacet
  facet normal -0 0 -1
    outer loop
      vertex 1.2 25 0
      vertex 0 0 0
      vertex 0 25 0
    endloop
  endfacet
  facet normal 0 -1 0
    outer loop
      vertex 0 0 0
      vertex 1.2 0 0.5
      vertex 0 0 0.5
    endloop
  endfacet
  facet normal 0 -1 -0
    outer loop
      vertex 1.2 0 0.5
      vertex 0 0 0
      vertex 1.2 0 0
    endloop
  endfacet
  facet normal -1 0 0
    outer loop
      vertex 1.8 0 0
      vertex 1.8 25 0.5
      vertex 1.8 25 0
    endloop
  endfacet
  facet normal -1 -0 0
    outer loop
      vertex 1.8 25 0.5
      vertex 1.8 0 0
      vertex 1.8 0 0.5
    endloop
  endfacet
  facet normal -0 0 1
    outer loop
      vertex 1.8 25 0.5
      vertex 2.4 0 0.5
      vertex 2.4 25 0.5
    endloop
  endfacet
  facet normal 0 0 1
    outer loop
      vertex 2.4 0 0.5
      vertex 1.8 25 0.5
      vertex 1.8 0 0.5
    endloop
  endfacet
  facet normal 1 -0 0
    outer loop
      vertex 2.4 0 0.5
      vertex 2.4 25 0
      vertex 2.4 25 0.5
    endloop
  endfacet
  facet normal 1 0 0
    outer loop
      vertex 2.4 25 0
      vertex 2.4 0 0.5
      vertex 2.4 0 0
    endloop
  endfacet
  facet normal 0 1 -0
    outer loop
      vertex 2.4 25 0
      vertex 1.8 25 0.5
      vertex 2.4 25 0.5
    endloop
  endfacet
  facet normal 0 1 0
    outer loop
      vertex 1.8 25 0.5
      vertex 2.4 25 0
      vertex 1.8 25 0
    endloop
  endfacet
  facet normal 0 0 -1
    outer loop
      vertex 1.8 0 0
      vertex 2.4 25 0
      vertex 2.4 0 0
    endloop
  endfacet
  facet normal -0 0 -1
    outer loop
      vertex 2.4 25 0
      vertex 1.8 0 0
      vertex 1.8 25 0
    endloop
  endfacet
  facet normal 0 -1 0
    outer loop
      vertex 1.8 0 0
      vertex 2.4 0 0.5
      vertex 1.8 0 0.5
    endloop
  endfacet
  facet normal 0 -1 -0
    outer loop
      vertex 2.4 0 0.5
      vertex 1.8 0 0
      vertex 2.4 0 0
    endloop
  endfacet
  facet normal -1 0 0
    outer loop
      vertex 3.6 0 0
      vertex 3.6 25 0.5
      vertex 3.6 25 0
    endloop
  endfacet
  facet normal -1 -0 0
    outer loop
      vertex 3.6 25 0.5
      vertex 3.6 0 0
      vertex 3.6 0 0.5
    endloop
  endfacet
  facet normal -0 0 1
    outer loop
      vertex 3.6 25 0.5
      vertex 4.2 0 0.5
      vertex 4.2 25 0.5
    endloop
  endfacet
  facet normal 0 0 1
    outer loop
      vertex 4.2 0 0.5
      vertex 3.6 25 0.5
      vertex 3.6 0 0.5
    endloop
  endfacet
  facet normal 1 -0 0
    outer loop
      vertex 4.2 0 0.5
      vertex 4.2 25 0
      vertex 4.2 25 0.5
    endloop
  endfacet
  facet normal 1 0 0
    outer loop
      vertex 4.2 25 0
      vertex 4.2 0 0.5
      vertex 4.2 0 0
    endloop
  endfacet
  facet normal 0 1 -0
    outer loop
      vertex 4.2 25 0
      vertex 3.6 25 0.5
      vertex 4.2 25 0.5
    endloop
  endfacet
  facet normal 0 1 0
    outer loop
      vertex 3.6 25 0.5
      vertex 4.2 25 0
      vertex 3.6 25 0
    endloop
  endfacet
  facet normal 0 0 -1
    outer loop
      vertex 3.6 0 0
      vertex 4.2 25 0
      vertex 4.2 0 0
    endloop
  endfacet
  facet normal -0 0 -1
    outer loop
      vertex 4.2 25 0
      vertex 3.6 0 0
      vertex 3.6 25 0
    endloop
  endfacet
  facet normal 0 -1 0
    outer loop
      vertex 3.6 0 0
      vertex 4.2 0 0.5
      vertex 3.6 0 0.5
    endloop
  endfacet
  facet normal 0 -1 -0
    outer loop
      vertex 4.2 0 0.5
      vertex 3.6 0 0
      vertex 4.2 0 0
    endloop
  endfacet
  facet normal -1 0 0
    outer loop
      vertex 6.6 0 0
      vertex 6.6 25 0.5
      vertex 6.6 25 0
    endloop
  endfacet
  facet normal -1 -0 0
    outer loop
      vertex 6.6 25 0.5
      vertex 6.6 0 0
      vertex 6.6 0 0.5
    endloop
  endfacet
  facet normal -0 0 1
    outer loop
      vertex 6.6 25 0.5
      vertex 7.8 0 0.5
      vertex 7.8 25 0.5
    endloop
  endfacet
  facet normal 0 0 1
    outer loop
      vertex 7.8 0 0.5
      vertex 6.6 25 0.5
      vertex 6.6 0 0.5
    endloop
  endfacet
  facet normal 1 -0 0
    outer loop
      vertex 7.8 0 0.5
      vertex 7.8 25 0
      vertex 7.8 25 0.5
    endloop
  endfacet
  facet normal 1 0 0
    outer loop
      vertex 7.8 25 0
      vertex 7.8 0 0.5
      vertex 7.8 0 0
    endloop
  endfacet
  facet normal 0 0 -1
    outer loop
      vertex 6.6 0 0
      vertex 7.8 25 0
      vertex 7.8 0 0
    endloop
  endfacet
  facet normal -0 0 -1
    outer loop
      vertex 7.8 25 0
      vertex 6.6 0 0
      vertex 6.6 25 0
    endloop
  endfacet
  facet normal 0 -1 0
    outer loop
      vertex 6.6 0 0
      vertex 7.8 0 0.5
      vertex 6.6 0 0.5
    endloop
  endfacet
  facet normal 0 -1 -0
    outer loop
      vertex 7.8 0 0.5
      vertex 6.6 0 0
      vertex 7.8 0 0
    endloop
  endfacet
  facet normal 0 1 -0
    outer loop
      vertex 7.8 25 0
      vertex 6.6 25 0.5
      vertex 7.8 25 0.5
    endloop
  endfacet
  facet normal 0 1 0
    outer loop
      vertex 6.6 25 0.5
      vertex 7.8 25 0
      vertex 6.6 25 0
    endloop
  endfacet
  facet normal -1 0 0
    outer loop
      vertex 9 0 0
      vertex 9 25 0.5
      vertex 9 25 0
    endloop
  endfacet
  facet normal -1 -0 0
    outer loop
      vertex 9 25 0.5
      vertex 9 0 0
      vertex 9 0 0.5
    endloop
  endfacet
  facet normal -0 0 1
    outer loop
      vertex 9 25 0.5
      vertex 10.8 0 0.5
      vertex 10.8 25 0.5
    endloop
  endfacet
  facet normal 0 0 1
    outer loop
      vertex 10.8 0 0.5
      vertex 9 25 0.5
      vertex 9 0 0.5
    endloop
  endfacet
  facet normal 1 -0 0
    outer loop
      vertex 10.8 0 0.5
      vertex 10.8 25 0
      vertex 10.8 25 0.5
    endloop
  endfacet
  facet normal 1 0 0
    outer loop
      vertex 10.8 25 0
      vertex 10.8 0 0.5
      vertex 10.8 0 0
    endloop
  endfacet
  facet normal 0 1 -0
    outer loop
      vertex 10.8 25 0
      vertex 9 25 0.5
      vertex 10.8 25 0.5
    endloop
  endfacet
  facet normal 0 1 0
    outer loop
      vertex 9 25 0.5
      vertex 10.8 25 0
      vertex 9 25 0
    endloop
  endfacet
  facet normal 0 0 -1
    outer loop
      vertex 9 0 0
      vertex 10.8 25 0
      vertex 10.8 0 0
    endloop
  endfacet
  facet normal -0 0 -1
    outer loop
      vertex 10.8 25 0
      vertex 9 0 0
      vertex 9 25 0
    endloop
  endfacet
  facet normal 0 -1 0
    outer loop
      vertex 9 0 0
      vertex 10.8 0 0.5
      vertex 9 0 0.5
    endloop
  endfacet
  facet normal 0 -1 -0
    outer loop
      vertex 10.8 0 0.5
      vertex 9 0 0
      vertex 10.8 0 0
    endloop
  endfacet
  facet normal -1 0 0
    outer loop
      vertex 12 0 0
      vertex 12 25 0.5
      vertex 12 25 0
    endloop
  endfacet
  facet normal -1 -0 0
    outer loop
      vertex 12 25 0.5
      vertex 12 0 0
      vertex 12 0 0.5
    endloop
  endfacet
  facet normal -0 0 1
    outer loop
      vertex 12 25 0.5
      vertex 12.6 0 0.5
      vertex 12.6 25 0.5
    endloop
  endfacet
  facet normal 0 0 1
    outer loop
      vertex 12.6 0 0.5
      vertex 12 25 0.5
      vertex 12 0 0.5
    endloop
  endfacet
  facet normal 1 -0 0
    outer loop
      vertex 12.6 0 0.5
      vertex 12.6 25 0
      vertex 12.6 25 0.5
    endloop
  endfacet
  facet normal 1 0 0
    outer loop
      vertex 12.6 25 0
      vertex 12.6 0 0.5
      vertex 12.6 0 0
    endloop
  endfacet
  facet normal 0 0 -1
    outer loop
      vertex 12 0 0
      vertex 12.6 25 0
      vertex 12.6 0 0
    endloop
  endfacet
  facet normal -0 0 -1
    outer loop
      vertex 12.6 25 0
      vertex 12 0 0
      vertex 12 25 0
    endloop
  endfacet
  facet normal 0 -1 0
    outer loop
      vertex 12 0 0
      vertex 12.6 0 0.5
      vertex 12 0 0.5
    endloop
  endfacet
  facet normal 0 -1 -0
    outer loop
      vertex 12.6 0 0.5
      vertex 12 0 0
      vertex 12.6 0 0
    endloop
  endfacet
  facet normal 0 1 -0
    outer loop
      vertex 12.6 25 0
      vertex 12 25 0.5
      vertex 12.6 25 0.5
    endloop
  endfacet
  facet normal 0 1 0
    outer loop
      vertex 12 25 0.5
      vertex 12.6 25 0
      vertex 12 25 0
    endloop
  endfacet
  facet normal -1 0 0
    outer loop
      vertex 13.2 0 0
      vertex 13.2 25 0.5
      vertex 13.2 25 0
    endloop
  endfacet
  facet normal -1 -0 0
    outer loop
      vertex 13.2 25 0.5
      vertex 13.2 0 0
      vertex 13.2 0 0.5
    endloop
  endfacet
  facet normal -0 0 1
    outer loop
      vertex 13.2 25 0.5
      vertex 14.4 0 0.5
      vertex 14.4 25 0.5
    endloop
  endfacet
  facet normal 0 0 1
    outer loop
      vertex 14.4 0 0.5
      vertex 13.2 25 0.5
      vertex 13.2 0 0.5
    endloop
  endfacet
  facet normal 1 -0 0
    outer loop
      vertex 14.4 0 0.5
      vertex 14.4 25 0
      vertex 14.4 25 0.5
    endloop
  endfacet
  facet normal 1 0 0
    outer loop
      vertex 14.4 25 0
      vertex 14.4 0 0.5
      vertex 14.4 0 0
    endloop
  endfacet
  facet normal 0 1 -0
    outer loop
      vertex 14.4 25 0
      vertex 13.2 25 0.5
      vertex 14.4 25 0.5
    endloop
  endfacet
  facet normal 0 1 0
    outer loop
      vertex 13.2 25 0.5
      vertex 14.4 25 0
      vertex 13.2 25 0
    endloop
  endfacet
  facet normal 0 0 -1
    outer loop
      vertex 13.2 0 0
      vertex 14.4 25 0
      vertex 14.4 0 0
    endloop
  endfacet
  facet normal -0 0 -1
    outer loop
      vertex 14.4 25 0
      vertex 13.2 0 0
      vertex 13.2 25 0
    endloop
  endfacet
  facet normal 0 -1 0
    outer loop
      vertex 13.2 0 0
      vertex 14.4 0 0.5
      vertex 13.2 0 0.5
    endloop
  endfacet
  facet normal 0 -1 -0
    outer loop
      vertex 14.4 0 0.5
      vertex 13.2 0 0
      vertex 14.4 0 0
    endloop
  endfacet
  facet normal -1 0 0
    outer loop
      vertex 15.6 0 0
      vertex 15.6 25 0.5
      vertex 15.6 25 0
    endloop
  endfacet
  facet normal -1 -0 0
    outer loop
      vertex 15.6 25 0.5
      vertex 15.6 0 0
      vertex 15.6 0 0.5
    endloop
  endfacet
  facet normal -0 0 1
    outer loop
      vertex 15.6 25 0.5
      vertex 17.4 0 0.5
      vertex 17.4 25 0.5
    endloop
  endfacet
  facet normal 0 0 1
    outer loop
      vertex 17.4 0 0.5
      vertex 15.6 25 0.5
      vertex 15.6 0 0.5
    endloop
  endfacet
  facet normal 1 -0 0
    outer loop
      vertex 17.4 0 0.5
      vertex 17.4 25 0
      vertex 17.4 25 0.5
    endloop
  endfacet
  facet normal 1 0 0
    outer loop
      vertex 17.4 25 0
      vertex 17.4 0 0.5
      vertex 17.4 0 0
    endloop
  endfacet
  facet normal 0 1 -0
    outer loop
      vertex 17.4 25 0
      vertex 15.6 25 0.5
      vertex 17.4 25 0.5
    endloop
  endfacet
  facet normal 0 1 0
    outer loop
      vertex 15.6 25 0.5
      vertex 17.4 25 0
      vertex 15.6 25 0
    endloop
  endfacet
  facet normal 0 0 -1
    outer loop
      vertex 15.6 0 0
      vertex 17.4 25 0
      vertex 17.4 0 0
    endloop
  endfacet
  facet normal -0 0 -1
    outer loop
      vertex 17.4 25 0
      vertex 15.6 0 0
      vertex 15.6 25 0
    endloop
  endfacet
  facet normal 0 -1 0
    outer loop
      vertex 15.6 0 0
      vertex 17.4 0 0.5
      vertex 15.6 0 0.5
    endloop
  endfacet
  facet normal 0 -1 -0
    outer loop
      vertex 17.4 0 0.5
      vertex 15.6 0 0
      vertex 17.4 0 0
    endloop
  endfacet
  facet normal -1 0 0
    outer loop
      vertex 18 0 0
      vertex 18 25 0.5
      vertex 18 25 0
    endloop
  endfacet
  facet normal -1 -0 0
    outer loop
      vertex 18 25 0.5
      vertex 18 0 0
      vertex 18 0 0.5
    endloop
  endfacet
  facet normal -0 0 1
    outer loop
      vertex 18 25 0.5
      vertex 18.6 0 0.5
      vertex 18.6 25 0.5
    endloop
  endfacet
  facet normal 0 0 1
    outer loop
      vertex 18.6 0 0.5
      vertex 18 25 0.5
      vertex 18 0 0.5
    endloop
  endfacet
  facet normal 1 -0 0
    outer loop
      vertex 18.6 0 0.5
      vertex 18.6 25 0
      vertex 18.6 25 0.5
    endloop
  endfacet
  facet normal 1 0 0
    outer loop
      vertex 18.6 25 0
      vertex 18.6 0 0.5
      vertex 18.6 0 0
    endloop
  endfacet
  facet normal 0 0 -1
    outer loop
      vertex 18 0 0
      vertex 18.6 25 0
      vertex 18.6 0 0
    endloop
  endfacet
  facet normal -0 0 -1
    outer loop
      vertex 18.6 25 0
      vertex 18 0 0
      vertex 18 25 0
    endloop
  endfacet
  facet normal 0 -1 0
    outer loop
      vertex 18 0 0
      vertex 18.6 0 0.5
      vertex 18 0 0.5
    endloop
  endfacet
  facet normal 0 -1 -0
    outer loop
      vertex 18.6 0 0.5
      vertex 18 0 0
      vertex 18.6 0 0
    endloop
  endfacet
  facet normal 0 1 -0
    outer loop
      vertex 18.6 25 0
      vertex 18 25 0.5
      vertex 18.6 25 0.5
    endloop
  endfacet
  facet normal 0 1 0
    outer loop
      vertex 18 25 0.5
      vertex 18.6 25 0
      vertex 18 25 0
    endloop
  endfacet
  facet normal -1 0 0
    outer loop
      vertex 19.8 0 0
      vertex 19.8 25 0.5
      vertex 19.8 25 0
    endloop
  endfacet
  facet normal -1 -0 0
    outer loop
      vertex 19.8 25 0.5
      vertex 19.8 0 0
      vertex 19.8 0 0.5
    endloop
  endfacet
  facet normal -0 0 1
    outer loop
      vertex 19.8 25 0.5
      vertex 21 0 0.5
      vertex 21 25 0.5
    endloop
  endfacet
  facet normal 0 0 1
    outer loop
      vertex 21 0 0.5
      vertex 19.8 25 0.5
      vertex 19.8 0 0.5
    endloop
  endfacet
  facet normal 1 -0 0
    outer loop
      vertex 21 0 0.5
      vertex 21 25 0
      vertex 21 25 0.5
    endloop
  endfacet
  facet normal 1 0 0
    outer loop
      vertex 21 25 0
      vertex 21 0 0.5
      vertex 21 0 0
    endloop
  endfacet
  facet normal 0 1 -0
    outer loop
      vertex 21 25 0
      vertex 19.8 25 0.5
      vertex 21 25 0.5
    endloop
  endfacet
  facet normal 0 1 0
    outer loop
      vertex 19.8 25 0.5
      vertex 21 25 0
      vertex 19.8 25 0
    endloop
  endfacet
  facet normal 0 0 -1
    outer loop
      vertex 19.8 0 0
      vertex 21 25 0
      vertex 21 0 0
    endloop
  endfacet
  facet normal -0 0 -1
    outer loop
      vertex 21 25 0
      vertex 19.8 0 0
      vertex 19.8 25 0
    endloop
  endfacet
  facet normal 0 -1 0
    outer loop
      vertex 19.8 0 0
      vertex 21 0 0.5
      vertex 19.8 0 0.5
    endloop
  endfacet
  facet normal 0 -1 -0
    outer loop
      vertex 21 0 0.5
      vertex 19.8 0 0
      vertex 21 0 0
    endloop
  endfacet
  facet normal -1 0 0
    outer loop
      vertex 22.2 0 0
      vertex 22.2 25 0.5
      vertex 22.2 25 0
    endloop
  endfacet
  facet normal -1 -0 0
    outer loop
      vertex 22.2 25 0.5
      vertex 22.2 0 0
      vertex 22.2 0 0.5
    endloop
  endfacet
  facet normal -0 0 1
    outer loop
      vertex 22.2 25 0.5
      vertex 22.8 0 0.5
      vertex 22.8 25 0.5
    endloop
  endfacet
  facet normal 0 0 1
    outer loop
      vertex 22.8 0 0.5
      vertex 22.2 25 0.5
      vertex 22.2 0 0.5
    endloop
  endfacet
  facet normal 1 -0 0
    outer loop
      vertex 22.8 0 0.5
      vertex 22.8 25 0
      vertex 22.8 25 0.5
    endloop
  endfacet
  facet normal 1 0 0
    outer loop
      vertex 22.8 25 0
      vertex 22.8 0 0.5
      vertex 22.8 0 0
    endloop
  endfacet
  facet normal 0 0 -1
    outer loop
      vertex 22.2 0 0
      vertex 22.8 25 0
      vertex 22.8 0 0
    endloop
  endfacet
  facet normal -0 0 -1
    outer loop
      vertex 22.8 25 0
      vertex 22.2 0 0
      vertex 22.2 25 0
    endloop
  endfacet
  facet normal 0 -1 0
    outer loop
      vertex 22.2 0 0
      vertex 22.8 0 0.5
      vertex 22.2 0 0.5
    endloop
  endfacet
  facet normal 0 -1 -0
    outer loop
      vertex 22.8 0 0.5
      vertex 22.2 0 0
      vertex 22.8 0 0
    endloop
  endfacet
  facet normal 0 1 -0
    outer loop
      vertex 22.8 25 0
      vertex 22.2 25 0.5
      vertex 22.8 25 0.5
    endloop
  endfacet
  facet normal 0 1 0
    outer loop
      vertex 22.2 25 0.5
      vertex 22.8 25 0
      vertex 22.2 25 0
    endloop
  endfacet
  facet normal -1 0 0
    outer loop
      vertex 23.4 0 0
      vertex 23.4 25 0.5
      vertex 23.4 25 0
    endloop
  endfacet
  facet normal -1 -0 0
    outer loop
      vertex 23.4 25 0.5
      vertex 23.4 0 0
      vertex 23.4 0 0.5
    endloop
  endfacet
  facet normal -0 0 1
    outer loop
      vertex 23.4 25 0.5
      vertex 25.2 0 0.5
      vertex 25.2 25 0.5
    endloop
  endfacet
  facet normal 0 0 1
    outer loop
      vertex 25.2 0 0.5
      vertex 23.4 25 0.5
      vertex 23.4 0 0.5
    endloop
  endfacet
  facet normal 1 -0 0
    outer loop
      vertex 25.2 0 0.5
      vertex 25.2 25 0
      vertex 25.2 25 0.5
    endloop
  endfacet
  facet normal 1 0 0
    outer loop
      vertex 25.2 25 0
      vertex 25.2 0 0.5
      vertex 25.2 0 0
    endloop
  endfacet
  facet normal 0 1 -0
    outer loop
      vertex 25.2 25 0
      vertex 23.4 25 0.5
      vertex 25.2 25 0.5
    endloop
  endfacet
  facet normal 0 1 0
    outer loop
      vertex 23.4 25 0.5
      vertex 25.2 25 0
      vertex 23.4 25 0
    endloop
  endfacet
  facet normal 0 0 -1
    outer loop
      vertex 23.4 0 0
      vertex 25.2 25 0
      vertex 25.2 0 0
    endloop
  endfacet
  facet normal -0 0 -1
    outer loop
      vertex 25.2 25 0
      vertex 23.4 0 0
      vertex 23.4 25 0
    endloop
  endfacet
  facet normal 0 -1 0
    outer loop
      vertex 23.4 0 0
      vertex 25.2 0 0.5
      vertex 23.4 0 0.5
    endloop
  endfacet
  facet normal 0 -1 -0
    outer loop
      vertex 25.2 0 0.5
      vertex 23.4 0 0
      vertex 25.2 0 0
    endloop
  endfacet
  facet normal -1 0 0
    outer loop
      vertex 26.4 0 0
      vertex 26.4 25 0.5
      vertex 26.4 25 0
    endloop
  endfacet
  facet normal -1 -0 0
    outer loop
      vertex 26.4 25 0.5
      vertex 26.4 0 0
      vertex 26.4 0 0.5
    endloop
  endfacet
  facet normal -0 0 1
    outer loop
      vertex 26.4 25 0.5
      vertex 28.2 0 0.5
      vertex 28.2 25 0.5
    endloop
  endfacet
  facet normal 0 0 1
    outer loop
      vertex 28.2 0 0.5
      vertex 26.4 25 0.5
      vertex 26.4 0 0.5
    endloop
  endfacet
  facet normal 1 -0 0
    outer loop
      vertex 28.2 0 0.5
      vertex 28.2 25 0
      vertex 28.2 25 0.5
    endloop
  endfacet
  facet normal 1 0 0
    outer loop
      vertex 28.2 25 0
      vertex 28.2 0 0.5
      vertex 28.2 0 0
    endloop
  endfacet
  facet normal 0 1 -0
    outer loop
      vertex 28.2 25 0
      vertex 26.4 25 0.5
      vertex 28.2 25 0.5
    endloop
  endfacet
  facet normal 0 1 0
    outer loop
      vertex 26.4 25 0.5
      vertex 28.2 25 0
      vertex 26.4 25 0
    endloop
  endfacet
  facet normal 0 0 -1
    outer loop
      vertex 26.4 0 0
      vertex 28.2 25 0
      vertex 28.2 0 0
    endloop
  endfacet
  facet normal -0 0 -1
    outer loop
      vertex 28.2 25 0
      vertex 26.4 0 0
      vertex 26.4 25 0
    endloop
  endfacet
  facet normal 0 -1 0
    outer loop
      vertex 26.4 0 0
      vertex 28.2 0 0.5
      vertex 26.4 0 0.5
    endloop
  endfacet
  facet normal 0 -1 -0
    outer loop
      vertex 28.2 0 0.5
      vertex 26.4 0 0
      vertex 28.2 0 0
    endloop
  endfacet
  facet normal -1 0 0
    outer loop
      vertex 28.8 0 0
      vertex 28.8 25 0.5
      vertex 28.8 25 0
    endloop
  endfacet
  facet normal -1 -0 0
    outer loop
      vertex 28.8 25 0.5
      vertex 28.8 0 0
      vertex 28.8 0 0.5
    endloop
  endfacet
  facet normal -0 0 1
    outer loop
      vertex 28.8 25 0.5
      vertex 30 0 0.5
      vertex 30 25 0.5
    endloop
  endfacet
  facet normal 0 0 1
    outer loop
      vertex 30 0 0.5
      vertex 28.8 25 0.5
      vertex 28.8 0 0.5
    endloop
  endfacet
  facet normal 1 -0 0
    outer loop
      vertex 30 0 0.5
      vertex 30 25 0
      vertex 30 25 0.5
    endloop
  endfacet
  facet normal 1 0 0
    outer loop
      vertex 30 25 0
      vertex 30 0 0.5
      vertex 30 0 0
    endloop
  endfacet
  facet normal 0 1 -0
    outer loop
      vertex 30 25 0
      vertex 28.8 25 0.5
      vertex 30 25 0.5
    endloop
  endfacet
  facet normal 0 1 0
    outer loop
      vertex 28.8 25 0.5
      vertex 30 25 0
      vertex 28.8 25 0
    endloop
  endfacet
  facet normal 0 0 -1
    outer loop
      vertex 28.8 0 0
      vertex 30 25 0
      vertex 30 0 0
    endloop
  endfacet
  facet normal -0 0 -1
    outer loop
      vertex 30 25 0
      vertex 28.8 0 0
      vertex 28.8 25 0
    endloop
  endfacet
  facet normal 0 -1 0
    outer loop
      vertex 28.8 0 0
      vertex 30 0 0.5
      vertex 28.8 0 0.5
    endloop
  endfacet
  facet normal 0 -1 -0
    outer loop
      vertex 30 0 0.5
      vertex 28.8 0 0
      vertex 30 0 0
    endloop
  endfacet
  facet normal -1 0 0
    outer loop
      vertex 30.6 0 0
      vertex 30.6 25 0.5
      vertex 30.6 25 0
    endloop
  endfacet
  facet normal -1 -0 0
    outer loop
      vertex 30.6 25 0.5
      vertex 30.6 0 0
      vertex 30.6 0 0.5
    endloop
  endfacet
  facet normal -0 0 1
    outer loop
      vertex 30.6 25 0.5
      vertex 32.4 0 0.5
      vertex 32.4 25 0.5
    endloop
  endfacet
  facet normal 0 0 1
    outer loop
      vertex 32.4 0 0.5
      vertex 30.6 25 0.5
      vertex 30.6 0 0.5
    endloop
  endfacet
  facet normal 1 -0 0
    outer loop
      vertex 32.4 0 0.5
      vertex 32.4 25 0
      vertex 32.4 25 0.5
    endloop
  endfacet
  facet normal 1 0 0
    outer loop
      vertex 32.4 25 0
      vertex 32.4 0 0.5
      vertex 32.4 0 0
    endloop
  endfacet
  facet normal 0 1 -0
    outer loop
      vertex 32.4 25 0
      vertex 30.6 25 0.5
      vertex 32.4 25 0.5
    endloop
  endfacet
  facet normal 0 1 0
    outer loop
      vertex 30.6 25 0.5
      vertex 32.4 25 0
      vertex 30.6 25 0
    endloop
  endfacet
  facet normal 0 0 -1
    outer loop
      vertex 30.6 0 0
      vertex 32.4 25 0
      vertex 32.4 0 0
    endloop
  endfacet
  facet normal -0 0 -1
    outer loop
      vertex 32.4 25 0
      vertex 30.6 0 0
      vertex 30.6 25 0
    endloop
  endfacet
  facet normal 0 -1 0
    outer loop
      vertex 30.6 0 0
      vertex 32.4 0 0.5
      vertex 30.6 0 0.5
    endloop
  endfacet
  facet normal 0 -1 -0
    outer loop
      vertex 32.4 0 0.5
      vertex 30.6 0 0
      vertex 32.4 0 0
    endloop
  endfacet
  facet normal -1 0 0
    outer loop
      vertex 33 0 0
      vertex 33 25 0.5
      vertex 33 25 0
    endloop
  endfacet
  facet normal -1 -0 0
    outer loop
      vertex 33 25 0.5
      vertex 33 0 0
      vertex 33 0 0.5
    endloop
  endfacet
  facet normal -0 0 1
    outer loop
      vertex 33 25 0.5
      vertex 34.8 0 0.5
      vertex 34.8 25 0.5
    endloop
  endfacet
  facet normal 0 0 1
    outer loop
      vertex 34.8 0 0.5
      vertex 33 25 0.5
      vertex 33 0 0.5
    endloop
  endfacet
  facet normal 1 -0 0
    outer loop
      vertex 34.8 0 0.5
      vertex 34.8 25 0
      vertex 34.8 25 0.5
    endloop
  endfacet
  facet normal 1 0 0
    outer loop
      vertex 34.8 25 0
      vertex 34.8 0 0.5
      vertex 34.8 0 0
    endloop
  endfacet
  facet normal 0 1 -0
    outer loop
      vertex 34.8 25 0
      vertex 33 25 0.5
      vertex 34.8 25 0.5
    endloop
  endfacet
  facet normal 0 1 0
    outer loop
      vertex 33 25 0.5
      vertex 34.8 25 0
      vertex 33 25 0
    endloop
  endfacet
  facet normal 0 0 -1
    outer loop
      vertex 33 0 0
      vertex 34.8 25 0
      vertex 34.8 0 0
    endloop
  endfacet
  facet normal -0 0 -1
    outer loop
      vertex 34.8 25 0
      vertex 33 0 0
      vertex 33 25 0
    endloop
  endfacet
  facet normal 0 -1 0
    outer loop
      vertex 33 0 0
      vertex 34.8 0 0.5
      vertex 33 0 0.5
    endloop
  endfacet
  facet normal 0 -1 -0
    outer loop
      vertex 34.8 0 0.5
      vertex 33 0 0
      vertex 34.8 0 0
    endloop
  endfacet
  facet normal -1 0 0
    outer loop
      vertex 35.4 0 0
      vertex 35.4 25 0.5
      vertex 35.4 25 0
    endloop
  endfacet
  facet normal -1 -0 0
    outer loop
      vertex 35.4 25 0.5
      vertex 35.4 0 0
      vertex 35.4 0 0.5
    endloop
  endfacet
  facet normal -0 0 1
    outer loop
      vertex 35.4 25 0.5
      vertex 36 0 0.5
      vertex 36 25 0.5
    endloop
  endfacet
  facet normal 0 0 1
    outer loop
      vertex 36 0 0.5
      vertex 35.4 25 0.5
      vertex 35.4 0 0.5
    endloop
  endfacet
  facet normal 1 -0 0
    outer loop
      vertex 36 0 0.5
      vertex 36 25 0
      vertex 36 25 0.5
    endloop
  endfacet
  facet normal 1 0 0
    outer loop
      vertex 36 25 0
      vertex 36 0 0.5
      vertex 36 0 0
    endloop
  endfacet
  facet normal 0 1 -0
    outer loop
      vertex 36 25 0
      vertex 35.4 25 0.5
      vertex 36 25 0.5
    endloop
  endfacet
  facet normal 0 1 0
    outer loop
      vertex 35.4 25 0.5
      vertex 36 25 0
      vertex 35.4 25 0
    endloop
  endfacet
  facet normal 0 0 -1
    outer loop
      vertex 35.4 0 0
      vertex 36 25 0
      vertex 36 0 0
    endloop
  endfacet
  facet normal -0 0 -1
    outer loop
      vertex 36 25 0
      vertex 35.4 0 0
      vertex 35.4 25 0
    endloop
  endfacet
  facet normal 0 -1 0
    outer loop
      vertex 35.4 0 0
      vertex 36 0 0.5
      vertex 35.4 0 0.5
    endloop
  endfacet
  facet normal 0 -1 -0
    outer loop
      vertex 36 0 0.5
      vertex 35.4 0 0
      vertex 36 0 0
    endloop
  endfacet
  facet normal -1 0 0
    outer loop
      vertex 37.2 0 0
      vertex 37.2 25 0.5
      vertex 37.2 25 0
    endloop
  endfacet
  facet normal -1 -0 0
    outer loop
      vertex 37.2 25 0.5
      vertex 37.2 0 0
      vertex 37.2 0 0.5
    endloop
  endfacet
  facet normal -0 0 1
    outer loop
      vertex 37.2 25 0.5
      vertex 38.4 0 0.5
      vertex 38.4 25 0.5
    endloop
  endfacet
  facet normal 0 0 1
    outer loop
      vertex 38.4 0 0.5
      vertex 37.2 25 0.5
      vertex 37.2 0 0.5
    endloop
  endfacet
  facet normal 1 -0 0
    outer loop
      vertex 38.4 0 0.5
      vertex 38.4 25 0
      vertex 38.4 25 0.5
    endloop
  endfacet
  facet normal 1 0 0
    outer loop
      vertex 38.4 25 0
      vertex 38.4 0 0.5
      vertex 38.4 0 0
    endloop
  endfacet
  facet normal 0 1 -0
    outer loop
      vertex 38.4 25 0
      vertex 37.2 25 0.5
      vertex 38.4 25 0.5
    endloop
  endfacet
  facet normal 0 1 0
    outer loop
      vertex 37.2 25 0.5
      vertex 38.4 25 0
      vertex 37.2 25 0
    endloop
  endfacet
  facet normal 0 0 -1
    outer loop
      vertex 37.2 0 0
      vertex 38.4 25 0
      vertex 38.4 0 0
    endloop
  endfacet
  facet normal -0 0 -1
    outer loop
      vertex 38.4 25 0
      vertex 37.2 0 0
      vertex 37.2 25 0
    endloop
  endfacet
  facet normal 0 -1 0
    outer loop
      vertex 37.2 0 0
      vertex 38.4 0 0.5
      vertex 37.2 0 0.5
    endloop
  endfacet
  facet normal 0 -1 -0
    outer loop
      vertex 38.4 0 0.5
      vertex 37.2 0 0
      vertex 38.4 0 0
    endloop
  endfacet
  facet normal -1 0 0
    outer loop
      vertex 39.6 0 0
      vertex 39.6 25 0.5
      vertex 39.6 25 0
    endloop
  endfacet
  facet normal -1 -0 0
    outer loop
      vertex 39.6 25 0.5
      vertex 39.6 0 0
      vertex 39.6 0 0.5
    endloop
  endfacet
  facet normal -0 0 1
    outer loop
      vertex 39.6 25 0.5
      vertex 41.4 0 0.5
      vertex 41.4 25 0.5
    endloop
  endfacet
  facet normal 0 0 1
    outer loop
      vertex 41.4 0 0.5
      vertex 39.6 25 0.5
      vertex 39.6 0 0.5
    endloop
  endfacet
  facet normal 1 -0 0
    outer loop
      vertex 41.4 0 0.5
      vertex 41.4 25 0
      vertex 41.4 25 0.5
    endloop
  endfacet
  facet normal 1 0 0
    outer loop
      vertex 41.4 25 0
      vertex 41.4 0 0.5
      vertex 41.4 0 0
    endloop
  endfacet
  facet normal 0 1 -0
    outer loop
      vertex 41.4 25 0
      vertex 39.6 25 0.5
      vertex 41.4 25 0.5
    endloop
  endfacet
  facet normal 0 1 0
    outer loop
      vertex 39.6 25 0.5
      vertex 41.4 25 0
      vertex 39.6 25 0
    endloop
  endfacet
  facet normal 0 0 -1
    outer loop
      vertex 39.6 0 0
      vertex 41.4 25 0
      vertex 41.4 0 0
    endloop
  endfacet
  facet normal -0 0 -1
    outer loop
      vertex 41.4 25 0
      vertex 39.6 0 0
      vertex 39.6 25 0
    endloop
  endfacet
  facet normal 0 -1 0
    outer loop
      vertex 39.6 0 0
      vertex 41.4 0 0.5
      vertex 39.6 0 0.5
    endloop
  endfacet
  facet normal 0 -1 -0
    outer loop
      vertex 41.4 0 0.5
      vertex 39.6 0 0
      vertex 41.4 0 0
    endloop
  endfacet
  facet normal -1 0 0
    outer loop
      vertex 42 0 0
      vertex 42 25 0.5
      vertex 42 25 0
    endloop
  endfacet
  facet normal -1 -0 0
    outer loop
      vertex 42 25 0.5
      vertex 42 0 0
      vertex 42 0 0.5
    endloop
  endfacet
  facet normal -0 0 1
    outer loop
      vertex 42 25 0.5
      vertex 43.2 0 0.5
      vertex 43.2 25 0.5
    endloop
  endfacet
  facet normal 0 0 1
    outer loop
      vertex 43.2 0 0.5
      vertex 42 25 0.5
      vertex 42 0 0.5
    endloop
  endfacet
  facet normal 1 -0 0
    outer loop
      vertex 43.2 0 0.5
      vertex 43.2 25 0
      vertex 43.2 25 0.5
    endloop
  endfacet
  facet normal 1 0 0
    outer loop
      vertex 43.2 25 0
      vertex 43.2 0 0.5
      vertex 43.2 0 0
    endloop
  endfacet
  facet normal 0 1 -0
    outer loop
      vertex 43.2 25 0
      vertex 42 25 0.5
      vertex 43.2 25 0.5
    endloop
  endfacet
  facet normal 0 1 0
    outer loop
      vertex 42 25 0.5
      vertex 43.2 25 0
      vertex 42 25 0
    endloop
  endfacet
  facet normal 0 0 -1
    outer loop
      vertex 42 0 0
      vertex 43.2 25 0
      vertex 43.2 0 0
    endloop
  endfacet
  facet normal -0 0 -1
    outer loop
      vertex 43.2 25 0
      vertex 42 0 0
      vertex 42 25 0
    endloop
  endfacet
  facet normal 0 -1 0
    outer loop
      vertex 42 0 0
      vertex 43.2 0 0.5
      vertex 42 0 0.5
    endloop
  endfacet
  facet normal 0 -1 -0
    outer loop
      vertex 43.2 0 0.5
      vertex 42 0 0
      vertex 43.2 0 0
    endloop
  endfacet
  facet normal -1 0 0
    outer loop
      vertex 43.8 0 0
      vertex 43.8 25 0.5
      vertex 43.8 25 0
    endloop
  endfacet
  facet normal -1 -0 0
    outer loop
      vertex 43.8 25 0.5
      vertex 43.8 0 0
      vertex 43.8 0 0.5
    endloop
  endfacet
  facet normal -0 0 1
    outer loop
      vertex 43.8 25 0.5
      vertex 45.6 0 0.5
      vertex 45.6 25 0.5
    endloop
  endfacet
  facet normal 0 0 1
    outer loop
      vertex 45.6 0 0.5
      vertex 43.8 25 0.5
      vertex 43.8 0 0.5
    endloop
  endfacet
  facet normal 1 -0 0
    outer loop
      vertex 45.6 0 0.5
      vertex 45.6 25 0
      vertex 45.6 25 0.5
    endloop
  endfacet
  facet normal 1 0 0
    outer loop
      vertex 45.6 25 0
      vertex 45.6 0 0.5
      vertex 45.6 0 0
    endloop
  endfacet
  facet normal 0 1 -0
    outer loop
      vertex 45.6 25 0
      vertex 43.8 25 0.5
      vertex 45.6 25 0.5
    endloop
  endfacet
  facet normal 0 1 0
    outer loop
      vertex 43.8 25 0.5
      vertex 45.6 25 0
      vertex 43.8 25 0
    endloop
  endfacet
  facet normal 0 0 -1
    outer loop
      vertex 43.8 0 0
      vertex 45.6 25 0
      vertex 45.6 0 0
    endloop
  endfacet
  facet normal -0 0 -1
    outer loop
      vertex 45.6 25 0
      vertex 43.8 0 0
      vertex 43.8 25 0
    endloop
  endfacet
  facet normal 0 -1 0
    outer loop
      vertex 43.8 0 0
      vertex 45.6 0 0.5
      vertex 43.8 0 0.5
    endloop
  endfacet
  facet normal 0 -1 -0
    outer loop
      vertex 45.6 0 0.5
      vertex 43.8 0 0
      vertex 45.6 0 0
    endloop
  endfacet
  facet normal -1 0 0
    outer loop
      vertex 46.2 0 0
      vertex 46.2 25 0.5
      vertex 46.2 25 0
    endloop
  endfacet
  facet normal -1 -0 0
    outer loop
      vertex 46.2 25 0.5
      vertex 46.2 0 0
      vertex 46.2 0 0.5
    endloop
  endfacet
  facet normal -0 0 1
    outer loop
      vertex 46.2 25 0.5
      vertex 47.4 0 0.5
      vertex 47.4 25 0.5
    endloop
  endfacet
  facet normal 0 0 1
    outer loop
      vertex 47.4 0 0.5
      vertex 46.2 25 0.5
      vertex 46.2 0 0.5
    endloop
  endfacet
  facet normal 1 -0 0
    outer loop
      vertex 47.4 0 0.5
      vertex 47.4 25 0
      vertex 47.4 25 0.5
    endloop
  endfacet
  facet normal 1 0 0
    outer loop
      vertex 47.4 25 0
      vertex 47.4 0 0.5
      vertex 47.4 0 0
    endloop
  endfacet
  facet normal 0 1 -0
    outer loop
      vertex 47.4 25 0
      vertex 46.2 25 0.5
      vertex 47.4 25 0.5
    endloop
  endfacet
  facet normal 0 1 0
    outer loop
      vertex 46.2 25 0.5
      vertex 47.4 25 0
      vertex 46.2 25 0
    endloop
  endfacet
  facet normal 0 0 -1
    outer loop
      vertex 46.2 0 0
      vertex 47.4 25 0
      vertex 47.4 0 0
    endloop
  endfacet
  facet normal -0 0 -1
    outer loop
      vertex 47.4 25 0
      vertex 46.2 0 0
      vertex 46.2 25 0
    endloop
  endfacet
  facet normal 0 -1 0
    outer loop
      vertex 46.2 0 0
      vertex 47.4 0 0.5
      vertex 46.2 0 0.5
    endloop
  endfacet
  facet normal 0 -1 -0
    outer loop
      vertex 47.4 0 0.5
      vertex 46.2 0 0
      vertex 47.4 0 0
    endloop
  endfacet
  facet normal -1 0 0
    outer loop
      vertex 49.2 0 0
      vertex 49.2 25 0.5
      vertex 49.2 25 0
    endloop
  endfacet
  facet normal -1 -0 0
    outer loop
      vertex 49.2 25 0.5
      vertex 49.2 0 0
      vertex 49.2 0 0.5
    endloop
  endfacet
  facet normal -0 0 1
    outer loop
      vertex 49.2 25 0.5
      vertex 51 0 0.5
      vertex 51 25 0.5
    endloop
  endfacet
  facet normal 0 0 1
    outer loop
      vertex 51 0 0.5
      vertex 49.2 25 0.5
      vertex 49.2 0 0.5
    endloop
  endfacet
  facet normal 1 -0 0
    outer loop
      vertex 51 0 0.5
      vertex 51 25 0
      vertex 51 25 0.5
    endloop
  endfacet
  facet normal 1 0 0
    outer loop
      vertex 51 25 0
      vertex 51 0 0.5
      vertex 51 0 0
    endloop
  endfacet
  facet normal 0 0 -1
    outer loop
      vertex 49.2 0 0
      vertex 51 25 0
      vertex 51 0 0
    endloop
  endfacet
  facet normal -0 0 -1
    outer loop
      vertex 51 25 0
      vertex 49.2 0 0
      vertex 49.2 25 0
    endloop
  endfacet
  facet normal 0 -1 0
    outer loop
      vertex 49.2 0 0
      vertex 51 0 0.5
      vertex 49.2 0 0.5
    endloop
  endfacet
  facet normal 0 -1 -0
    outer loop
      vertex 51 0 0.5
      vertex 49.2 0 0
      vertex 51 0 0
    endloop
  endfacet
  facet normal 0 1 -0
    outer loop
      vertex 51 25 0
      vertex 49.2 25 0.5
      vertex 51 25 0.5
    endloop
  endfacet
  facet normal 0 1 0
    outer loop
      vertex 49.2 25 0.5
      vertex 51 25 0
      vertex 49.2 25 0
    endloop
  endfacet
  facet normal -1 0 0
    outer loop
      vertex 51.6 0 0
      vertex 51.6 25 0.5
      vertex 51.6 25 0
    endloop
  endfacet
  facet normal -1 -0 0
    outer loop
      vertex 51.6 25 0.5
      vertex 51.6 0 0
      vertex 51.6 0 0.5
    endloop
  endfacet
  facet normal -0 0 1
    outer loop
      vertex 51.6 25 0.5
      vertex 52.2 0 0.5
      vertex 52.2 25 0.5
    endloop
  endfacet
  facet normal 0 0 1
    outer loop
      vertex 52.2 0 0.5
      vertex 51.6 25 0.5
      vertex 51.6 0 0.5
    endloop
  endfacet
  facet normal 1 -0 0
    outer loop
      vertex 52.2 0 0.5
      vertex 52.2 25 0
      vertex 52.2 25 0.5
    endloop
  endfacet
  facet normal 1 0 0
    outer loop
      vertex 52.2 25 0
      vertex 52.2 0 0.5
      vertex 52.2 0 0
    endloop
  endfacet
  facet normal 0 0 -1
    outer loop
      vertex 51.6 0 0
      vertex 52.2 25 0
      vertex 52.2 0 0
    endloop
  endfacet
  facet normal -0 0 -1
    outer loop
      vertex 52.2 25 0
      vertex 51.6 0 0
      vertex 51.6 25 0
    endloop
  endfacet
  facet normal 0 -1 0
    outer loop
      vertex 51.6 0 0
      vertex 52.2 0 0.5
      vertex 51.6 0 0.5
    endloop
  endfacet
  facet normal 0 -1 -0
    outer loop
      vertex 52.2 0 0.5
      vertex 51.6 0 0
      vertex 52.2 0 0
    endloop
  endfacet
  facet normal 0 1 -0
    outer loop
      vertex 52.2 25 0
      vertex 51.6 25 0.5
      vertex 52.2 25 0.5
    endloop
  endfacet
  facet normal 0 1 0
    outer loop
      vertex 51.6 25 0.5
      vertex 52.2 25 0
      vertex 51.6 25 0
    endloop
  endfacet
  facet normal -1 0 0
    outer loop
      vertex 52.8 0 0
      vertex 52.8 25 0.5
      vertex 52.8 25 0
    endloop
  endfacet
  facet normal -1 -0 0
    outer loop
      vertex 52.8 25 0.5
      vertex 52.8 0 0
      vertex 52.8 0 0.5
    endloop
  endfacet
  facet normal -0 0 1
    outer loop
      vertex 52.8 25 0.5
      vertex 54 0 0.5
      vertex 54 25 0.5
    endloop
  endfacet
  facet normal 0 0 1
    outer loop
      vertex 54 0 0.5
      vertex 52.8 25 0.5
      vertex 52.8 0 0.5
    endloop
  endfacet
  facet normal 1 -0 0
    outer loop
      vertex 54 0 0.5
      vertex 54 25 0
      vertex 54 25 0.5
    endloop
  endfacet
  facet normal 1 0 0
    outer loop
      vertex 54 25 0
      vertex 54 0 0.5
      vertex 54 0 0
    endloop
  endfacet
  facet normal 0 1 -0
    outer loop
      vertex 54 25 0
      vertex 52.8 25 0.5
      vertex 54 25 0.5
    endloop
  endfacet
  facet normal 0 1 0
    outer loop
      vertex 52.8 25 0.5
      vertex 54 25 0
      vertex 52.8 25 0
    endloop
  endfacet
  facet normal 0 0 -1
    outer loop
      vertex 52.8 0 0
      vertex 54 25 0
      vertex 54 0 0
    endloop
  endfacet
  facet normal -0 0 -1
    outer loop
      vertex 54 25 0
      vertex 52.8 0 0
      vertex 52.8 25 0
    endloop
  endfacet
  facet normal 0 -1 0
    outer loop
      vertex 52.8 0 0
      vertex 54 0 0.5
      vertex 52.8 0 0.5
    endloop
  endfacet
  facet normal 0 -1 -0
    outer loop
      vertex 54 0 0.5
      vertex 52.8 0 0
      vertex 54 0 0
    endloop
  endfacet
endsolid OpenSCAD_Model
